<svg width="14" height="14" viewBox="0 0 14 14" fill="none" xmlns="http://www.w3.org/2000/svg">
<rect width="14" height="14" fill="#E5E5E5"/>
<rect width="1440" height="4003" transform="translate(-1082 -3734)" fill="#FAFAFA"/>
<rect x="-1082" y="-214" width="1440" height="483" fill="#FCCB90" fill-opacity="0.15"/>
<g filter="url(#filter0_d_0_1)">
<circle cx="6.99994" cy="-40.7801" r="9.99994" fill="#FF5E3A"/>
</g>
<g filter="url(#filter1_d_0_1)">
<ellipse cx="7" cy="7.21395" rx="10" ry="9.66" fill="#FF5E3A"/>
</g>
<path d="M4.25202 3.21746C6.08056 3.06391 7.91944 3.06391 9.74798 3.21746L10.629 3.29143C11.2154 3.34068 11.7177 3.67859 11.978 4.16195C12.0113 4.22379 11.9863 4.29865 11.9249 4.33534L8.26981 6.52112C7.48588 6.9899 6.49742 6.99974 5.70366 6.54665L2.0241 4.44629C1.96465 4.41235 1.93736 4.3425 1.96415 4.28102C2.20225 3.73467 2.73753 3.34463 3.37105 3.29143L4.25202 3.21746Z" fill="white"/>
<path d="M1.96116 5.39215C1.87018 5.34022 1.7541 5.39611 1.74349 5.49767C1.59548 6.91523 1.6313 8.34621 1.85096 9.75728C1.96676 10.5012 2.59525 11.0714 3.37105 11.1366L4.25202 11.2106C6.08056 11.3641 7.91944 11.3641 9.74798 11.2106L10.629 11.1366C11.4048 11.0714 12.0332 10.5012 12.149 9.75728C12.3751 8.30509 12.4065 6.83181 12.2431 5.37378C12.2316 5.27149 12.1136 5.21664 12.023 5.27079L8.73037 7.2398C7.66977 7.87404 6.33243 7.88735 5.25853 7.27435L1.96116 5.39215Z" fill="white"/>
<defs>
<filter id="filter0_d_0_1" x="-21" y="-55.78" width="55.9999" height="55.9998" filterUnits="userSpaceOnUse" color-interpolation-filters="sRGB">
<feFlood flood-opacity="0" result="BackgroundImageFix"/>
<feColorMatrix in="SourceAlpha" type="matrix" values="0 0 0 0 0 0 0 0 0 0 0 0 0 0 0 0 0 0 127 0" result="hardAlpha"/>
<feOffset dy="13"/>
<feGaussianBlur stdDeviation="9"/>
<feColorMatrix type="matrix" values="0 0 0 0 0.0658854 0 0 0 0 0.0730469 0 0 0 0 0.1375 0 0 0 0.08 0"/>
<feBlend mode="normal" in2="BackgroundImageFix" result="effect1_dropShadow_0_1"/>
<feBlend mode="normal" in="SourceGraphic" in2="effect1_dropShadow_0_1" result="shape"/>
</filter>
<filter id="filter1_d_0_1" x="-21" y="-7.44604" width="56" height="55.3201" filterUnits="userSpaceOnUse" color-interpolation-filters="sRGB">
<feFlood flood-opacity="0" result="BackgroundImageFix"/>
<feColorMatrix in="SourceAlpha" type="matrix" values="0 0 0 0 0 0 0 0 0 0 0 0 0 0 0 0 0 0 127 0" result="hardAlpha"/>
<feOffset dy="13"/>
<feGaussianBlur stdDeviation="9"/>
<feColorMatrix type="matrix" values="0 0 0 0 0.0658854 0 0 0 0 0.0730469 0 0 0 0 0.1375 0 0 0 0.08 0"/>
<feBlend mode="normal" in2="BackgroundImageFix" result="effect1_dropShadow_0_1"/>
<feBlend mode="normal" in="SourceGraphic" in2="effect1_dropShadow_0_1" result="shape"/>
</filter>
</defs>
</svg>
